<?xml version="1.0" encoding="UTF-8"?><svg id="Calque_1" xmlns="http://www.w3.org/2000/svg" viewBox="0 0 1080 1080"><defs><style>.cls-1,.cls-2{fill:#facc11;}.cls-3{letter-spacing:.01em;}.cls-2{font-family:TimesNewRomanPS-BoldMT, 'Times New Roman';font-size:45px;font-weight:700;}.cls-4{letter-spacing:.03em;}</style></defs><path class="cls-1" d="M754.05,318.33c-12.55,4.25-25.48,5.3-38.2,7.59-32.93,5.92-66.12,10.43-99,16.58-46.49,8.68-93.36,15.04-139.89,23.41-31.63,5.69-62.47,13.73-85.21,39.13-14.6,16.31-23.07,34.88-22.98,57.21,.21,55.09-.14,110.19,.27,165.28,.07,9.31-2.91,12.14-11.87,11.59-10.52-.65-21.12-.32-31.68-.03-5.87,.16-8.26-1.92-8.25-7.99,.14-64.66-2.84-129.49,.95-193.93,3.65-61.9,36.03-99.72,106.05-112.67,13.53-2.5,27.42-3.55,41.2-4.14,92.01-3.92,184.09-1.04,276.13-2,4.16-.04,8.32,0,12.48,0Z"/><path class="cls-1" d="M328.21,761.67c38.81-4.35,76.38-12.86,114.39-18.49,53.34-7.9,106.34-18.01,159.61-26.39,23.01-3.62,45.15-8.72,64.79-21.89,18.76-12.58,34.11-27.88,41.51-49.92,2.13-6.36,2.98-12.74,2.97-19.41-.06-60.03,.19-120.06-.16-180.09-.05-9.25,2.12-13.17,12-12.42,10.5,.8,21.11,.39,31.67,.1,6.06-.17,8.04,2.33,8.02,8.21-.15,68.94,2.24,137.98-.92,206.78-2.6,56.6-35.67,90.61-92.19,105.59-24.83,6.58-50.26,7.28-75.44,7.54-86.46,.88-172.93,.37-259.4,.39-2.28,0-4.57,0-6.85,0Z"/><text class="cls-2" transform="translate(385.8 556.79)"><tspan class="cls-4" x="0" y="0">MELON-SOF</tspan><tspan class="cls-3" x="284.65" y="0">T</tspan></text><path class="cls-1" d="M687.45,437.82h0c-.82,0-1.53,.64-1.67,1.5-.83,5.11-1.72,8.38-2.66,9.81-1.03,1.57-2.45,2.35-4.24,2.35s-5.12-1.59-9.77-4.77c-4.65-3.18-8.6-5.36-11.84-6.53-4.27-1.56-8.68-2.35-13.23-2.35-12.47,0-22.81,5.58-31.01,16.74-8.2,11.16-12.3,24.67-12.3,40.53,0,9.25,1.48,17.72,4.45,25.42,0,0,.01,0,.02,0,.3,0,.58,.04,.87,.07,.08,0,.16,.01,.24,0l49.83-2.67c.13,0,.25-.03,.38-.07,.18-.05,.37-.1,.57-.12,0,0,0,0,0,0-11.6-8.15-19.02-13.83-22.24-17.04-4.41-4.5-7.62-9.05-9.61-13.66-1.45-3.42-2.17-7.34-2.17-11.75,0-6.95,2.05-13.09,6.15-18.43,4.1-5.33,9.67-8,16.7-8,9.1,0,17.56,5.07,25.38,15.2,7.57,9.81,12.42,22.68,14.53,38.6,.12,.89,.83,1.56,1.68,1.56h1.03c.95,0,1.71-.83,1.7-1.84l-1.08-62.76c-.02-.98-.77-1.77-1.7-1.77Z"/><path class="cls-1" d="M694.81,564.94l-41.56-.46c-.69,2.3-.65,2.17-1.34,4.47,5.78,4.32,10.02,7.96,12.71,10.93,3.58,3.96,6.25,8.15,8.01,12.55,1.76,4.41,2.64,8.96,2.64,13.66,0,7.93-2.29,14.88-6.87,20.85-4.58,5.97-10.73,8.96-18.45,8.96-9.99,0-19.31-5.55-27.96-16.67-8.4-10.78-14.14-26.29-17.25-46.53-.16-1.07-1.02-1.86-2.04-1.86h0c-1.14,0-2.06,.98-2.06,2.2v70.78c0,1.21,.92,2.2,2.06,2.2h.3c.86,0,1.63-.57,1.93-1.43,1.17-3.3,2.63-5.81,4.39-7.53,2-1.96,3.89-2.94,5.69-2.94,2.14,0,4.86,.98,8.17,2.94,5.93,3.52,10.85,5.92,14.78,7.19,3.93,1.27,8.1,1.91,12.51,1.91,14.06,0,25.65-5.99,34.79-17.99,9.13-11.99,13.7-26.31,13.7-42.95,0-6.6-.72-12.83-2.15-18.68-.23-.95-1.05-1.61-1.97-1.62Z"/><path class="cls-1" d="M409.08,619.7c-.35-2.25-.52-8.27-.52-18.06v-34.9c0-.85-.65-1.54-1.45-1.54h-4.96c-.8,0-1.45,.69-1.45,1.54v35.63c0,8.91-.07,13.9-.21,14.98-.76,4.6-1.83,8.17-3.2,10.72-1.38,2.55-3.41,4.58-6.1,6.09-2.69,1.52-5.58,2.23-8.68,2.13h0c-.8,0-1.45,.69-1.45,1.54v2.35c0,.85,.65,1.54,1.45,1.54h45.07c.8,0,1.45-.69,1.45-1.54v-2.38c0-.82-.61-1.51-1.39-1.54-5.71-.21-9.95-1.74-12.72-4.6-3-3.08-4.95-7.07-5.84-11.97Z"/><path class="cls-1" d="M394.92,450.92c2.34,1.91,3.89,4.11,4.65,6.61,.76,2.5,1.14,8.79,1.14,18.87v39.77c0,1.5,1.14,2.72,2.55,2.72h2.75c1.41,0,2.55-1.22,2.55-2.72v-37.45c0-3.1,4.09-3.78,4.98-.83l11.84,39.12c.34,1.12,1.32,1.88,2.43,1.88h29.9c1.73,0,2.96-1.79,2.43-3.54l-21.25-70.82c-.34-1.13-1.32-1.89-2.43-1.89h-52.85c-1.41,0-2.55,1.22-2.55,2.72h0c0,1.5,1.14,2.72,2.55,2.72h1.89c3.93,0,7.06,.95,9.41,2.86Z"/><path class="cls-1" d="M515.21,444.54l-20.52,70.82c-.51,1.75,.72,3.52,2.44,3.52h2.81c.91-.71,1.76-1.37,2.67-2.08l11.79-39.85c.88-2.96,4.99-2.29,4.99,.82v38.4c0,1.5,1.14,2.72,2.55,2.72h28.59c1.41,0,2.55-1.22,2.55-2.72v-39.77c0-9.89,.38-16,1.14-18.35,1.03-3.23,2.41-5.53,4.13-6.9,2.48-2.06,5.79-3.08,9.92-3.08h2c1.41,0,2.55-1.22,2.55-2.72h0c0-1.5-1.14-2.72-2.55-2.72h-52.63c-1.12,0-2.11,.78-2.44,1.92Z"/><path class="cls-1" d="M476.08,568.41l-.58-1.95c-.22-.75-.88-1.26-1.62-1.26h-31.56c-1.15,0-1.97,1.19-1.62,2.36l22.07,72.91c.23,.75,.88,1.25,1.62,1.25h0c.74,0,1.4-.51,1.62-1.26l21.58-72.91c.34-1.16-.47-2.35-1.62-2.35h-4.47c-.74,0-1.4,.52-1.62,1.27l-.55,1.91c-.49,1.69-2.73,1.7-3.24,.02Z"/><path class="cls-1" d="M558.87,633.43c-2.34-1.91-3.89-4.13-4.65-6.68-.76-2.54-1.14-8.91-1.14-19.09v-39.74c0-1.5-1.14-2.72-2.55-2.72h-28.59c-1.41,0-2.55,1.22-2.55,2.72v39.74c0,9.98-.38,16.15-1.14,18.5-1.03,3.33-2.41,5.68-4.14,7.05-2.48,2.06-5.79,3.08-9.92,3.08h-2c-1.41,0-2.55,1.22-2.55,2.72h0c0,1.5,1.14,2.72,2.55,2.72h68.08c1.41,0,2.55-1.22,2.55-2.72h0c0-1.5-1.14-2.72-2.55-2.72h-2c-3.93,0-7.06-.95-9.41-2.86Z"/></svg>